<svg xmlns="http://www.w3.org/2000/svg" x="0px" y="0px"
width="30" height="30"
viewBox="0 0 172 172"
style=" fill:#ffffff;"><g fill="none" fill-rule="nonzero" stroke="none" stroke-width="1" stroke-linecap="butt" stroke-linejoin="miter" stroke-miterlimit="10" stroke-dasharray="" stroke-dashoffset="0" font-family="none" font-weight="none" font-size="none" text-anchor="none" style="mix-blend-mode: normal"><path d="M0,172v-172h172v172z" fill="none"></path><g fill="#000000"><path d="M85.91042,14.25495c-3.16203,0.04943 -5.68705,2.6496 -5.64375,5.81172v2.86667h-31.53333c-1.53406,-0.02082 -3.01249,0.574 -4.10468,1.65146c-1.09219,1.07746 -1.70703,2.54767 -1.70704,4.08187h-8.52161c-2.06765,-0.02924 -3.99087,1.05709 -5.03322,2.843c-1.04236,1.78592 -1.04236,3.99474 0,5.78066c1.04236,1.78592 2.96558,2.87225 5.03322,2.843h103.2c2.06765,0.02924 3.99087,-1.05709 5.03322,-2.843c1.04236,-1.78592 1.04236,-3.99474 0,-5.78066c-1.04236,-1.78592 -2.96558,-2.87225 -5.03322,-2.843h-8.52161c-0.00001,-1.53421 -0.61486,-3.00442 -1.70704,-4.08187c-1.09219,-1.07746 -2.57061,-1.67228 -4.10468,-1.65146h-31.53333v-2.86667c0.02122,-1.54972 -0.58581,-3.04203 -1.68279,-4.1369c-1.09698,-1.09487 -2.59045,-1.69903 -4.14013,-1.67482zM34.4,51.6l10.27969,87.34375c0.67653,5.77347 5.56348,10.12292 11.37708,10.12292h59.88646c5.8136,0 10.69482,-4.34945 11.37708,-10.12292l10.27969,-87.34375z"></path></g></g></svg>