<svg
  xmlns="http://www.w3.org/2000/svg"
  id="Layer_3"
  data-name="Layer 3"
  viewBox="0 0 863.29 543"
>
  <defs>
    <style>
      .cls-1{fill:#7cb8de}
    </style>
  </defs>
  <path
    d="M478.16 192.7 622.37 48.49 590.08 16.2 431.63 174.66 273.18 16.2l-32.29 32.29L385.1 192.7h93.06zM543.41 351.01l111.21 111.21 32.29-32.28-78.92-78.93h-64.58zM607.99 191.96l78.92-78.93-30.94-30.94L546.1 191.96h61.89zM255.28 351.01l-78.93 78.93 32.29 32.28 111.21-111.21h-64.57zM317.16 191.96 207.3 82.09l-30.95 30.94 78.93 78.93h61.88zM387.05 351.01 242.24 495.82l30.94 30.94 158.45-158.45 158.45 158.45 30.95-30.94-144.81-144.81h-89.17z"
    class="cls-1"
  />
  <path
    d="M126.83 227.9a46.62 46.62 0 0 1-5.89 22.89q-5.67 10.68-18.09 17.23-12.21 6.54-31 6.54H46.38V333H15.85V180.8h56q17.65 0 30.08 6.11t18.54 16.79a46.63 46.63 0 0 1 6.36 24.2Zm-56.25 22q12.65 0 18.75-5.67 6.11-5.9 6.1-16.35 0-22.25-24.85-22.24h-24.2v44.26ZM179 171.64V333h-30.5V171.64Zm22.31 100.52q0-18.32 7.19-32.49a54.5 54.5 0 0 1 19.84-21.8 53.37 53.37 0 0 1 28.13-7.63q13.51 0 23.55 5.45a47.71 47.71 0 0 1 16.35 13.73V212.2h30.74V333H296.4v-17.67a46.22 46.22 0 0 1-16.35 14.17q-10.26 5.44-23.77 5.45a51.92 51.92 0 0 1-27.91-7.85 56.16 56.16 0 0 1-19.84-22q-7.2-14.4-7.19-32.94Zm95.06.43q0-11.11-4.36-19a29.83 29.83 0 0 0-11.78-12.2 31.45 31.45 0 0 0-31.61-.22 31.7 31.7 0 0 0-11.77 12.21q-4.37 7.84-4.36 18.75a40.52 40.52 0 0 0 4.36 19.18 33.36 33.36 0 0 0 11.77 12.43 30.43 30.43 0 0 0 15.7 4.36 32.09 32.09 0 0 0 15.94-4.1A31.74 31.74 0 0 0 292 291.78q4.4-8.07 4.4-19.19Zm127.49-62.14q21.58 0 34.89 13.74 13.29 13.51 13.3 37.94V333h-30.5v-66.73q0-14.38-7.19-22-7.2-7.84-19.63-7.85-12.64 0-20.06 7.85-7.19 7.63-7.19 22V333H357V212.2h30.53v15A41.44 41.44 0 0 1 403 215a48 48 0 0 1 20.89-4.55Zm144.15 0q21.59 0 34.88 13.74 13.3 13.51 13.3 37.94V333H585.7v-66.73q0-14.38-7.2-22-7.18-7.84-19.62-7.85-12.64 0-20.06 7.85-7.19 7.63-7.19 22V333H501.1V212.2h30.53v15a41.44 41.44 0 0 1 15.48-12.2 48 48 0 0 1 20.89-4.55ZM757.54 270a72.18 72.18 0 0 1-.87 11.77h-88.3q1.08 13.08 9.15 20.5a28.26 28.26 0 0 0 19.84 7.41q17 0 24.21-14.61h32.92a55.61 55.61 0 0 1-20.06 28.78Q719.61 334.95 698 335a64.32 64.32 0 0 1-31.4-7.63 56.08 56.08 0 0 1-21.58-22q-7.63-14.18-7.64-32.71 0-18.75 7.64-32.92a53.16 53.16 0 0 1 21.36-21.8q13.74-7.63 31.62-7.63 17.22 0 30.74 7.41a51.09 51.09 0 0 1 21.15 21.15q7.66 13.45 7.65 31.13Zm-31.61-8.72q-.23-11.77-8.51-18.75-8.28-7.2-20.27-7.2a27.86 27.86 0 0 0-19.19 7q-7.63 6.75-9.38 19ZM810.35 231a41.69 41.69 0 0 1 37.06-20.5v32.06h-8.07q-14.39 0-21.8 6.75-7.2 6.77-7.19 23.55V333h-30.53V212.2h30.53Z"
  />
</svg>
