<svg id="Layer_3" data-name="Layer 3" xmlns="http://www.w3.org/2000/svg" viewBox="0 0 863.29 543"><defs><style>.cls-1{fill:#7cb5de;}</style></defs><polygon class="cls-1" points="478.16 192.7 622.37 48.49 590.08 16.2 431.63 174.66 273.18 16.2 240.89 48.49 385.1 192.7 478.16 192.7"/><polygon class="cls-1" points="543.41 351.01 654.62 462.22 686.91 429.94 607.99 351.01 543.41 351.01"/><polygon class="cls-1" points="607.99 191.96 686.91 113.03 655.97 82.09 546.1 191.96 607.99 191.96"/><polygon class="cls-1" points="255.28 351.01 176.35 429.94 208.64 462.22 319.85 351.01 255.28 351.01"/><polygon class="cls-1" points="317.16 191.96 207.3 82.09 176.35 113.03 255.28 191.96 317.16 191.96"/><polygon class="cls-1" points="387.05 351.01 242.24 495.82 273.18 526.76 431.63 368.31 590.08 526.76 621.03 495.82 476.22 351.01 387.05 351.01"/><g id="Layer_4" data-name="Layer 4"><path d="M71.77,274.66H46.2v58.56H15.61V180.69H71.77c36.71,0,55.06,20.76,55.06,47.21C126.83,251.06,111.1,274.66,71.77,274.66ZM70.45,250c17.27,0,24.92-8.53,24.92-22.07,0-14-7.65-22.29-24.92-22.29H46.2V250Z"/><path d="M148.46,171.52h30.59v161.7H148.46Z"/><path d="M256.63,210.19c19.45,0,32.78,9.18,40,19.23V212.16h30.81V333.22H296.62v-17.7c-7.21,10.49-21,19.67-40.21,19.67-30.59,0-55.07-25.13-55.07-62.94S225.82,210.19,256.63,210.19Zm7.87,26.88c-16.39,0-31.91,12.24-31.91,35.18s15.52,36.06,31.91,36.06c16.82,0,32.12-12.67,32.12-35.62S281.32,237.07,264.5,237.07Z"/><path d="M442.15,266.35c0-19.44-10.71-29.93-26.88-29.93-16.61,0-27.31,10.49-27.31,29.93v66.87h-30.6V212.16H388v15.08c7.86-10.27,21-16.83,36.49-16.83,28.19,0,48.29,18.36,48.29,51.79v71H442.15Z"/><path d="M586.59,266.35c0-19.44-10.71-29.93-26.88-29.93-16.61,0-27.31,10.49-27.31,29.93v66.87H501.8V212.16h30.6v15.08c7.86-10.27,21-16.83,36.49-16.83,28.19,0,48.29,18.36,48.29,51.79v71H586.59Z"/><path d="M699.13,335.19c-35.19,0-60.75-24.48-60.75-62.5,0-38.24,24.91-62.5,60.75-62.5,35,0,59.65,23.82,59.65,59.88a72.11,72.11,0,0,1-.87,11.8h-88.5c1.53,17.92,13.76,28,29.06,28,13.11,0,20.32-6.56,24.26-14.64h33C749.17,317.49,729.06,335.19,699.13,335.19Zm-29.5-73.86H727.1c-.44-15.95-13.11-26-28.85-26C683.61,235.32,672,244.72,669.63,261.33Z"/><path d="M811.66,333.22H781.07V212.16h30.59V231c7.65-12.45,20.32-20.54,37.15-20.54v32.13h-8.09c-18.13,0-29.06,7-29.06,30.37Z"/></g></svg>