<svg width="143" height="113" viewBox="0 0 143 113" fill="none" xmlns="http://www.w3.org/2000/svg">
<line x1="26.6066" y1="11.3934" x2="117.607" y2="102.393" stroke="#7CB5DE" stroke-width="30"/>
<line x1="26.5355" y1="11.4645" x2="117.536" y2="102.464" stroke="#FBFBFB" stroke-width="10"/>
<line y1="-15" x2="128.693" y2="-15" transform="matrix(-0.707107 0.707107 0.707107 0.707107 127 22)" stroke="#7CB5DE" stroke-width="30"/>
<line y1="-5" x2="128.693" y2="-5" transform="matrix(-0.707107 0.707107 0.707107 0.707107 120 15)" stroke="#FBFBFB" stroke-width="10"/>
<line x1="23" y1="56" x2="116" y2="56" stroke="#FBFBFB" stroke-width="40"/>
<path d="M20.808 48.648C20.808 49.992 20.484 51.252 19.836 52.428C19.212 53.604 18.216 54.552 16.848 55.272C15.504 55.992 13.8 56.352 11.736 56.352H7.524V66H2.484V40.872H11.736C13.68 40.872 15.336 41.208 16.704 41.88C18.072 42.552 19.092 43.476 19.764 44.652C20.46 45.828 20.808 47.16 20.808 48.648ZM11.52 52.284C12.912 52.284 13.944 51.972 14.616 51.348C15.288 50.7 15.624 49.8 15.624 48.648C15.624 46.2 14.256 44.976 11.52 44.976H7.524V52.284H11.52ZM29.4263 39.36V66H24.3863V39.36H29.4263ZM33.1099 55.956C33.1099 53.94 33.5059 52.152 34.2979 50.592C35.1139 49.032 36.2059 47.832 37.5739 46.992C38.9659 46.152 40.5139 45.732 42.2179 45.732C43.7059 45.732 45.0019 46.032 46.1059 46.632C47.2339 47.232 48.1339 47.988 48.8059 48.9V46.056H53.8819V66H48.8059V63.084C48.1579 64.02 47.2579 64.8 46.1059 65.424C44.9779 66.024 43.6699 66.324 42.1819 66.324C40.5019 66.324 38.9659 65.892 37.5739 65.028C36.2059 64.164 35.1139 62.952 34.2979 61.392C33.5059 59.808 33.1099 57.996 33.1099 55.956ZM48.8059 56.028C48.8059 54.804 48.5659 53.76 48.0859 52.896C47.6059 52.008 46.9579 51.336 46.1419 50.88C45.3259 50.4 44.4499 50.16 43.5139 50.16C42.5779 50.16 41.7139 50.388 40.9219 50.844C40.1299 51.3 39.4819 51.972 38.9779 52.86C38.4979 53.724 38.2579 54.756 38.2579 55.956C38.2579 57.156 38.4979 58.212 38.9779 59.124C39.4819 60.012 40.1299 60.696 40.9219 61.176C41.7379 61.656 42.6019 61.896 43.5139 61.896C44.4499 61.896 45.3259 61.668 46.1419 61.212C46.9579 60.732 47.6059 60.06 48.0859 59.196C48.5659 58.308 48.8059 57.252 48.8059 56.028ZM69.8563 45.768C72.2323 45.768 74.1523 46.524 75.6163 48.036C77.0803 49.524 77.8123 51.612 77.8123 54.3V66H72.7723V54.984C72.7723 53.4 72.3763 52.188 71.5843 51.348C70.7923 50.484 69.7123 50.052 68.3443 50.052C66.9523 50.052 65.8483 50.484 65.0323 51.348C64.2403 52.188 63.8443 53.4 63.8443 54.984V66H58.8043V46.056H63.8443V48.54C64.5163 47.676 65.3683 47.004 66.4003 46.524C67.4563 46.02 68.6083 45.768 69.8563 45.768ZM93.6571 45.768C96.0331 45.768 97.9531 46.524 99.4171 48.036C100.881 49.524 101.613 51.612 101.613 54.3V66H96.5731V54.984C96.5731 53.4 96.1771 52.188 95.3851 51.348C94.5931 50.484 93.5131 50.052 92.1451 50.052C90.7531 50.052 89.6491 50.484 88.8331 51.348C88.0411 52.188 87.6451 53.4 87.6451 54.984V66H82.6051V46.056H87.6451V48.54C88.3171 47.676 89.1691 47.004 90.2011 46.524C91.2571 46.02 92.4091 45.768 93.6571 45.768ZM124.946 55.596C124.946 56.316 124.898 56.964 124.802 57.54H110.222C110.342 58.98 110.846 60.108 111.734 60.924C112.622 61.74 113.714 62.148 115.01 62.148C116.882 62.148 118.214 61.344 119.006 59.736H124.442C123.866 61.656 122.762 63.24 121.13 64.488C119.498 65.712 117.494 66.324 115.118 66.324C113.198 66.324 111.47 65.904 109.934 65.064C108.422 64.2 107.234 62.988 106.37 61.428C105.53 59.868 105.11 58.068 105.11 56.028C105.11 53.964 105.53 52.152 106.37 50.592C107.21 49.032 108.386 47.832 109.898 46.992C111.41 46.152 113.15 45.732 115.118 45.732C117.014 45.732 118.706 46.14 120.194 46.956C121.706 47.772 122.87 48.936 123.686 50.448C124.526 51.936 124.946 53.652 124.946 55.596ZM119.726 54.156C119.702 52.86 119.234 51.828 118.322 51.06C117.41 50.268 116.294 49.872 114.974 49.872C113.726 49.872 112.67 50.256 111.806 51.024C110.966 51.768 110.45 52.812 110.258 54.156H119.726ZM133.665 49.152C134.313 48.096 135.153 47.268 136.185 46.668C137.241 46.068 138.441 45.768 139.785 45.768V51.06H138.453C136.869 51.06 135.669 51.432 134.853 52.176C134.061 52.92 133.665 54.216 133.665 56.064V66H128.625V46.056H133.665V49.152Z" fill="black"/>
</svg>
